<svg width="62" height="53" viewBox="0 0 62 53" fill="none" xmlns="http://www.w3.org/2000/svg">
<g clip-path="url(#clip0_14_187)">
<rect x="1" y="24" width="38" height="28" rx="4" fill="white"/>
<path d="M4.29688 23H35.7031C38.0727 23 40 24.8977 40 27.2308V48.7692C40 51.1023 38.0727 53 35.7031 53H4.29688C1.92735 53 0 51.1023 0 48.7692V27.2308C0 24.8977 1.92735 23 4.29688 23ZM2.34375 48.7692C2.34375 49.83 3.21953 50.6923 4.29688 50.6923H35.7031C36.7805 50.6923 37.6562 49.83 37.6562 48.7692V27.2308C37.6562 26.17 36.7805 25.3077 35.7031 25.3077H4.29688C3.21953 25.3077 2.34375 26.17 2.34375 27.2308V48.7692Z" fill="#295788"/>
<path d="M6.65706 27.8584L17.8414 36.4238C19.1125 37.3969 20.8875 37.3969 22.1578 36.4238L33.343 27.8584C33.8539 27.4669 34.5899 27.5576 34.9875 28.0607C35.3852 28.5638 35.293 29.2884 34.7821 29.6799L23.5977 38.2453C22.5383 39.0561 21.2696 39.4615 20 39.4615C18.7305 39.4615 17.4617 39.0561 16.4024 38.2453L5.218 29.6799C4.70706 29.2884 4.61487 28.5638 5.01253 28.0607C5.41018 27.5576 6.14612 27.4669 6.65706 27.8584Z" fill="#295788"/>
</g>
<circle cx="38.5" cy="23.5" r="23.5" fill="url(#paint0_radial_14_187)"/>
<rect x="28" y="13" width="21.4182" height="21.4182" rx="10.7091" fill="#F9C000"/>
<path d="M39 17.1666C37.3918 17.1666 36.0834 18.475 36.0834 20.0833V21.8333H35.5C34.8566 21.8333 34.3334 22.3565 34.3334 23V27.6666C34.3334 28.31 34.8566 28.8333 35.5 28.8333H42.5C43.1435 28.8333 43.6667 28.31 43.6667 27.6666V23C43.6667 22.3565 43.1435 21.8333 42.5 21.8333H41.9167V20.0833C41.9167 18.475 40.6083 17.1666 39 17.1666ZM42.5 23L42.5012 27.6666H35.5V23H42.5ZM37.25 21.8333V20.0833C37.25 19.1185 38.0352 18.3333 39 18.3333C39.9649 18.3333 40.75 19.1185 40.75 20.0833V21.8333H37.25Z" fill="white"/>
<defs>
<radialGradient id="paint0_radial_14_187" cx="0" cy="0" r="1" gradientUnits="userSpaceOnUse" gradientTransform="translate(38.5627 23.5) rotate(90) scale(23.5)">
<stop stop-color="#E2CB6C"/>
<stop offset="1" stop-color="#FCFCFC" stop-opacity="0"/>
</radialGradient>
<clipPath id="clip0_14_187">
<rect width="40" height="30" fill="white" transform="matrix(-1 0 0 1 40 23)"/>
</clipPath>
</defs>
</svg>
