<svg width="62" height="52" viewBox="0 0 62 52" fill="none" xmlns="http://www.w3.org/2000/svg">
<g clip-path="url(#clip0_14_188)">
<rect x="1" y="23" width="38" height="28" rx="4" fill="white"/>
<path d="M4.29688 22H35.7031C38.0727 22 40 23.8977 40 26.2308V47.7692C40 50.1023 38.0727 52 35.7031 52H4.29688C1.92735 52 0 50.1023 0 47.7692V26.2308C0 23.8977 1.92735 22 4.29688 22ZM2.34375 47.7692C2.34375 48.83 3.21953 49.6923 4.29688 49.6923H35.7031C36.7805 49.6923 37.6562 48.83 37.6562 47.7692V26.2308C37.6562 25.17 36.7805 24.3077 35.7031 24.3077H4.29688C3.21953 24.3077 2.34375 25.17 2.34375 26.2308V47.7692Z" fill="#295788"/>
<path d="M6.65703 26.8584L17.8414 35.4238C19.1125 36.3969 20.8875 36.3969 22.1578 35.4238L33.343 26.8584C33.8539 26.4669 34.5898 26.5576 34.9875 27.0607C35.3852 27.5638 35.293 28.2884 34.782 28.6799L23.5977 37.2453C22.5383 38.0561 21.2695 38.4615 20 38.4615C18.7305 38.4615 17.4617 38.0561 16.4023 37.2453L5.21797 28.6799C4.70703 28.2884 4.61484 27.5638 5.0125 27.0607C5.41015 26.5576 6.14609 26.4669 6.65703 26.8584Z" fill="#295788"/>
</g>
<circle cx="39.5" cy="22.5" r="22.5" fill="url(#paint0_radial_14_188)"/>
<rect x="28.5818" y="12.4185" width="21.4182" height="21.4182" rx="10.7091" fill="#4DA857"/>
<g clip-path="url(#clip1_14_188)">
<path d="M39.2909 17.6511C36.2713 17.6511 33.8147 20.1078 33.8147 23.1274C33.8147 26.147 36.2713 28.6036 39.2909 28.6036C42.3105 28.6036 44.7672 26.147 44.7672 23.1274C44.7672 20.1078 42.3105 17.6511 39.2909 17.6511ZM39.2909 27.5084C36.8753 27.5084 34.9099 25.5429 34.9099 23.1274C34.9099 20.7118 36.8753 18.7464 39.2909 18.7464C41.7065 18.7464 43.6719 20.7118 43.6719 23.1274C43.6719 25.5429 41.7065 27.5084 39.2909 27.5084Z" fill="white"/>
<path d="M38.1951 23.9965L36.9361 22.7397L36.1629 23.5152L38.1962 25.5441L41.8686 21.8718L41.0942 21.0974L38.1951 23.9965Z" fill="white"/>
</g>
<defs>
<radialGradient id="paint0_radial_14_188" cx="0" cy="0" r="1" gradientUnits="userSpaceOnUse" gradientTransform="translate(39.5 22.5) rotate(90) scale(22.5)">
<stop stop-color="#4DA857" stop-opacity="0.4"/>
<stop offset="1" stop-color="#4DA857" stop-opacity="0"/>
</radialGradient>
<clipPath id="clip0_14_188">
<rect width="40" height="30" fill="white" transform="matrix(-1 0 0 1 40 22)"/>
</clipPath>
<clipPath id="clip1_14_188">
<rect width="13.143" height="13.143" fill="white" transform="translate(32.7194 16.5559)"/>
</clipPath>
</defs>
</svg>
