<svg width="40" height="30" viewBox="0 0 40 30" fill="none" xmlns="http://www.w3.org/2000/svg">
<g clip-path="url(#clip0_2_147)">
<rect x="1" y="1" width="38" height="28" rx="4" fill="white"/>
<path d="M4.29688 0H35.7031C38.0727 0 40 1.89769 40 4.23077V25.7692C40 28.1023 38.0727 30 35.7031 30H4.29688C1.92735 30 0 28.1023 0 25.7692V4.23077C0 1.89769 1.92735 0 4.29688 0ZM2.34375 25.7692C2.34375 26.83 3.21953 27.6923 4.29688 27.6923H35.7031C36.7805 27.6923 37.6562 26.83 37.6562 25.7692V4.23077C37.6562 3.17 36.7805 2.30769 35.7031 2.30769H4.29688C3.21953 2.30769 2.34375 3.17 2.34375 4.23077V25.7692Z" fill="#295788"/>
<path d="M6.65703 4.8584L17.8414 13.4238C19.1125 14.3969 20.8875 14.3969 22.1578 13.4238L33.343 4.8584C33.8539 4.46686 34.5898 4.55763 34.9875 5.06071C35.3852 5.56379 35.293 6.2884 34.782 6.67994L23.5977 15.2453C22.5383 16.0561 21.2695 16.4615 20 16.4615C18.7305 16.4615 17.4617 16.0561 16.4023 15.2453L5.21797 6.67994C4.70703 6.2884 4.61484 5.56379 5.0125 5.06071C5.41015 4.55763 6.14609 4.46686 6.65703 4.8584Z" fill="#295788"/>
</g>
<defs>
<clipPath id="clip0_2_147">
<rect width="40" height="30" fill="white" transform="matrix(-1 0 0 1 40 0)"/>
</clipPath>
</defs>
</svg>
