<svg width="209" height="37" viewBox="0 0 209 37" fill="none" xmlns="http://www.w3.org/2000/svg">
<path d="M74.1489 2.26526L61.528 33.602H57.177L44.5662 2.26526H50.334L59.3374 24.8325L68.3811 2.26526H74.1489Z" fill="#295788"/>
<path d="M101.777 17.9337C101.777 11.7706 97.7144 7.23975 91.4872 7.23975C85.2599 7.23975 81.0488 11.7706 81.0488 17.9337C81.0488 24.0969 85.25 28.6277 91.4872 28.6277C97.7243 28.6277 101.777 24.0969 101.777 17.9337ZM75.6857 17.9337C75.6857 8.63462 82.1612 1.88782 91.4872 1.88782C100.813 1.88782 107.189 8.63462 107.189 17.9337C107.189 27.2329 100.813 33.9797 91.4872 33.9797C82.1612 33.9797 75.6857 27.2329 75.6857 17.9337Z" fill="#295788"/>
<path d="M117.563 2.26526H112.184V33.602H117.563V2.26526Z" fill="#295788"/>
<path d="M147.145 7.18451H137.391V33.602H131.927V7.18451H122.173V2.26526H147.145V7.18451Z" fill="#295788"/>
<path d="M177.112 2.26526V33.602H171.74V20.5368H157.127V33.602H151.755V2.26526H157.127V15.3305H171.74V2.26526H177.112Z" fill="#295788"/>
<path d="M197.719 20.1013V33.602H192.285V20.2497L180.954 2.26526H187.212L194.977 14.5584L202.752 2.26526H209L197.719 20.1013Z" fill="#295788"/>
<path d="M8.45221 16.8921V0C3.4045 1.6902 0 6.44451 0 11.8018V28.6939C5.04771 27.0037 8.45221 22.2494 8.45221 16.8921Z" fill="#E84034"/>
<path d="M16.9607 28.6938H0C1.69905 33.6582 6.47826 37 11.8536 37H28.8143C27.1153 32.0356 22.3361 28.6938 16.9607 28.6938Z" fill="#E84034"/>
<path d="M37.6507 8.30615C32.3736 9.99635 28.8143 14.7507 28.8143 20.1079V37C34.0915 35.2999 37.6507 30.5555 37.6507 25.1983V8.30615Z" fill="#E84034"/>
<path d="M20.4639 8.30612H37.6508C35.9291 3.35142 31.0962 0 25.6492 0H8.45227C10.174 4.96436 15.0169 8.30612 20.4639 8.30612Z" fill="#E84034"/>
</svg>
